HIERARCHY
ROOT Hips
{
	OFFSET -0.179506 -22.333345 2.821913
	CHANNELS 6 Xposition Yposition Zposition Zrotation Yrotation Xrotation 
	JOINT LeftUpLeg
	{
		OFFSET 6.951974 -9.140623 -0.681533
		CHANNELS 3 Zrotation Yrotation Xrotation
		JOINT LeftLeg
		{
			OFFSET 3.427654 -37.519855 -0.449580
			CHANNELS 3 Zrotation Yrotation Xrotation
			JOINT LeftFoot
			{
				OFFSET -1.359570 -39.796059 -4.369333
				CHANNELS 3 Zrotation Yrotation Xrotation
				JOINT LeftToe
				{
					OFFSET 2.635814 -5.579078 11.928840
					CHANNELS 3 Zrotation Yrotation Xrotation
					End Site
					{
						OFFSET 0.000000 0.000000 0.000000
					}
				}
			}
		}
	}
	JOINT RightUpLeg
	{
		OFFSET -6.767048 -9.052170 -0.431982
		CHANNELS 3 Zrotation Yrotation Xrotation
		JOINT RightLeg
		{
			OFFSET -3.829005 -38.256897 -0.885003
			CHANNELS 3 Zrotation Yrotation Xrotation
			JOINT RightFoot
			{
				OFFSET 1.577377 -39.841461 -4.231180
				CHANNELS 3 Zrotation Yrotation Xrotation
				JOINT RightToe
				{
					OFFSET -2.537174 -4.814398 12.334795
					CHANNELS 3 Zrotation Yrotation Xrotation
					End Site
					{
						OFFSET 0.000000 0.000000 0.000000
					}
				}
			}
		}
	}
	JOINT Spine
	{
		OFFSET -0.253288 10.896323 -2.669631
		CHANNELS 3 Zrotation Yrotation Xrotation
		JOINT Spine1
		{
			OFFSET 0.548704 13.518043 0.109247
			CHANNELS 3 Zrotation Yrotation Xrotation
			JOINT Spine2
			{
				OFFSET 0.145701 5.292222 2.542457
				CHANNELS 3 Zrotation Yrotation Xrotation
				JOINT Neck
				{
					OFFSET -0.277840 21.387037 -4.285703
					CHANNELS 3 Zrotation Yrotation Xrotation
					JOINT Head
					{
						OFFSET 0.515184 6.496960 5.134897
						CHANNELS 3 Zrotation Yrotation Xrotation
						End Site
						{
							OFFSET 0.000000 0.000000 0.000000
						}
					}
				}
				JOINT LeftShoulder
				{
					OFFSET 7.884473 12.174932 -3.408961
					CHANNELS 3 Zrotation Yrotation Xrotation
					JOINT LeftArm
					{
						OFFSET 9.097692 3.046888 -0.886815
						CHANNELS 3 Zrotation Yrotation Xrotation
						JOINT LeftForeArm
						{
							OFFSET 25.961220 -1.277207 -2.745643
							CHANNELS 3 Zrotation Yrotation Xrotation
							JOINT LeftHand
							{
								OFFSET 24.923361 0.898606 -0.117091
								CHANNELS 3 Zrotation Yrotation Xrotation
								End Site
								{
									OFFSET 0.000000 0.000000 0.000000
								}
							}
						}
					}
				}
				JOINT RightShoulder
				{
					OFFSET -8.175920 11.883285 -3.861528
					CHANNELS 3 Zrotation Yrotation Xrotation
					JOINT RightArm
					{
						OFFSET -9.601238 3.255117 -0.914307
						CHANNELS 3 Zrotation Yrotation Xrotation
						JOINT RightForeArm
						{
							OFFSET -25.374195 -1.332924 -2.140099
							CHANNELS 3 Zrotation Yrotation Xrotation
							JOINT RightHand
							{
								OFFSET -25.529810 0.777228 -0.555919
								CHANNELS 3 Zrotation Yrotation Xrotation
								End Site
								{
									OFFSET 0.000000 0.000000 0.000000
								}
							}
						}
					}
				}
			}
		}
	}
}
MOTION
Frames: 5
Frame Time: 0.033333
-165.819138 159.187653 11.030116 -136.423596 -1.686905 178.765686 0.928510 -0.619725 -3.903398 -11.008254 -10.018411 16.356498 -1.129472 6.063715 -14.410463 nan nan nan -9.086041 -1.624429 -7.219383 2.867510 3.439668 20.285388 6.457771 -3.464294 -6.410296 nan nan nan 0.297133 -0.296685 -1.363822 1.506424 -2.018569 4.785028 -1.255863 -0.059630 -3.193045 -2.720269 -5.572752 -11.689777 0.418222 -3.544623 -20.576719 -17.746515 12.333971 -2.256484 -18.300218 13.781269 6.682797 166.454616 -44.477630 -138.563277 57.597249 -28.532951 -13.688142 13.680873 -10.285680 -0.557798 16.106900 -12.644019 -4.123044 -175.894638 48.634193 -154.116110 -53.985121 28.062731 -9.307640 
-165.860260 159.139343 11.048514 -136.392812 -1.780144 178.991864 0.925866 -0.792164 -4.218327 -11.057310 -10.091699 16.434976 -1.093148 6.233374 -14.353404 nan nan nan -9.068595 -1.667175 -7.601932 2.825081 3.369948 20.440610 6.549021 -3.673416 -6.223962 nan nan nan 0.345580 -0.751687 -1.477402 1.417889 -1.876910 4.230571 -1.120068 0.254148 -2.727837 -2.988501 -5.832673 -11.291879 0.819022 -3.229590 -21.079188 -17.935184 12.188311 -2.246018 -18.020843 13.800057 6.502203 166.747525 -44.468963 -138.852208 57.648037 -28.105935 -12.886412 13.513771 -10.332888 -0.442115 16.190218 -12.679144 -4.686165 -176.281668 48.583637 -154.520741 -53.872298 27.784336 -8.834754 
-165.877548 159.123505 11.053109 -136.391830 -1.815059 179.056226 0.919532 -0.861341 -4.277902 -11.122370 -10.157203 16.430974 -1.208557 6.288142 -14.279468 nan nan nan -9.078053 -1.676135 -7.673012 2.797848 3.316441 20.435482 6.542975 -3.764242 -6.239656 nan nan nan 0.347653 -0.851903 -1.674883 1.393347 -1.851524 4.448957 -1.073421 0.302865 -2.831449 -2.999126 -5.994850 -11.224325 0.856122 -3.187845 -21.239706 -18.064637 12.121877 -2.188534 -17.917798 13.830709 6.512566 166.822155 -44.407831 -138.888136 57.621141 -27.964236 -11.890458 13.546448 -10.318804 -0.408079 16.105723 -12.736549 -4.723213 -176.312990 48.548440 -154.649693 -53.881104 27.683981 -8.655273 
-165.877121 159.115051 11.053495 -136.399669 -1.855226 179.041133 0.914492 -0.873784 -4.243044 -11.154416 -10.185736 16.417066 -1.265638 6.278073 -14.285370 nan nan nan -9.090803 -1.673112 -7.623119 2.806164 3.309218 20.389506 6.544101 -3.766185 -6.238159 nan nan nan 0.343896 -0.898888 -1.703149 1.378333 -1.857157 4.515979 -1.063604 0.309493 -2.859366 -3.002076 -6.029675 -11.287797 0.858898 -3.195821 -21.295494 -18.141861 12.083500 -2.155497 -17.899441 13.897251 6.496080 166.740859 -44.351041 -138.791150 57.758167 -27.957338 -11.817522 13.601020 -10.290357 -0.376051 16.080502 -12.809602 -4.729383 -176.264884 48.541651 -154.591526 -53.976047 27.691488 -8.582556 
-165.863068 159.114532 11.061706 -136.364039 -1.854558 179.014473 0.958606 -0.855972 -4.186550 -11.154211 -10.140599 16.420848 -1.267963 6.303427 -14.252761 nan nan nan -9.062806 -1.647798 -7.545482 2.922178 3.387998 20.275076 6.585567 -3.575430 -6.154191 nan nan nan 0.353108 -0.917191 -1.751174 1.421941 -1.883463 4.547566 -1.039685 0.302877 -2.825314 -3.022248 -5.933059 -11.164862 0.774827 -3.104286 -21.294869 -18.129371 12.098695 -2.136590 -18.072012 13.922472 6.466429 166.724605 -44.411557 -138.705079 57.865567 -27.912429 -11.822728 13.582794 -10.270903 -0.325919 16.061274 -12.722714 -4.726749 -176.239635 48.591062 -154.583552 -54.002731 27.682606 -8.526356 
